<?xml version="1.0" encoding="utf-8"?>
<!-- Generator: Adobe Illustrator 19.2.1, SVG Export Plug-In . SVG Version: 6.00 Build 0)  -->
<svg version="1.2" baseProfile="tiny" id="Layer_1" xmlns="http://www.w3.org/2000/svg" xmlns:xlink="http://www.w3.org/1999/xlink"
	 x="0px" y="0px" viewBox="0 0 376 190.40741" xml:space="preserve">
<g>
	<rect x="0.62726" y="1.02637" fill="#C8E8E1" width="374.66666" height="149.20345"/>
	<path fill="#FFFFFF" d="M375.29391,129.40555c0-22.93858-20.05173-41.53397-44.32748-41.53397
		c-1.15164,0-2.2894,0.05498-3.41895,0.13712c-3.89893-16.11343-16.56552-27.92492-31.60114-27.92492
		c-6.75507,0-13.03201,2.38598-18.25253,6.47209c-8.06036-9.31477-20.31418-15.26304-34.04109-15.26304
		c-4.27893,0-8.41,0.58855-12.32085,1.66598c-5.80228-19.21782-21.47064-32.99353-39.89993-32.99353
		c-17.02541,0-31.69221,11.75915-38.40428,28.70201c-8.31627-14.26775-22.32605-23.63921-38.21149-23.63921
		c-21.7914,0-40.04781,17.63543-44.91991,41.35717c-3.85062-1.85188-8.06594-2.87987-12.48837-2.87987
		c-18.1406,0-32.84625,17.18729-32.84625,38.38871c0,1.40453,0.06871,2.78995,0.19448,4.15532
		c-14.31207,6.84903-24.12887,23.02995-24.12887,39.22592h374.66666C376.8826,140.98196,375.29391,134.21126,375.29391,129.40555z"
		/>
	<linearGradient id="SVGID_1_" gradientUnits="userSpaceOnUse" x1="187.96059" y1="61.31765" x2="187.96059" y2="140.17918">
		<stop  offset="0" style="stop-color:#CCE7CC"/>
		<stop  offset="1" style="stop-color:#FFFFFF"/>
	</linearGradient>
	<path fill="url(#SVGID_1_)" d="M0.62726,134.72803c0,0,62.44445-48.73589,188.66194-48.73589
		s186.00471,54.60769,186.00471,54.60769v21.72565H0.62726V134.72803z"/>
</g>
<g>
	<image width="733" height="76" xlink:href="B13CF5161C93DBA4.png"  transform="matrix(0.24 0 0 0.24 101.96581 169.11649)">
	</image>
	<path fill="#662553" d="M145.02153,175.25786c0,0,6.00189,3.62932,8.40359,3.35559
		c2.40172-0.27374,0.91562,2.25418,0.91562,2.25418s-6.42792,1.95438-10.53464-0.52043c0,0-9.42886,0.13971-6.61636-4.91917
		C140.00224,170.36916,145.02153,175.25786,145.02153,175.25786z"/>
	<path fill="#662553" d="M112.34708,176.40297c0,0,2.48772,1.45049,5.22714,1.76564
		c2.73942,0.31514-0.01545,2.40132-0.01545,2.40132s-7.84762,2.55283-11.60508-1.38164c0,0-5.23299,0.79514-3.5116-2.50903
		c1.72138-3.30415,4.6453-5.24048,4.6453-5.24048S111.69593,173.56171,112.34708,176.40297z"/>
	<path fill="#BC68A5" d="M134.70088,130.007c0,0,14.56653,15.29581,15.14445,18.50215
		c0.57791,3.20634-3.38339,26.61641-3.38339,26.61641s-8.97714,1.58623-9.2722,0.30246
		c-0.29504-1.28375,2.17406-21.84648,3.15668-23.10587c0.9826-1.2594-16.11356-9.57373-17.36819-19.18362
		S134.70088,130.007,134.70088,130.007z"/>
	<path fill="#BC68A5" d="M129.57097,130.23859c0,0,3.78954,20.41524-0.45047,27.07155
		c-4.24001,6.65633-16.77342,19.09283-16.77342,19.09283l-8.18361-3.02786c0,0,9.1562-12.71326,13.47301-18.09399
		c4.3168-5.38074-1.99512-25.16403-1.99512-25.16403S124.36137,120.79063,129.57097,130.23859z"/>
	<path fill="#9D3B7F" d="M131.34135,99.72082c0,0-12.58244-7.51271-20.84239,0.41344c0,0-3.75426,15.0541,3.40029,30.70467
		c0.94267,2.0421,23.70701-0.63741,23.70701-0.63741L131.34135,99.72082z"/>
	<g>
		<path fill="#E7CD60" d="M215.50864,105.17113c-0.25027,28.09104-23.4872,45.37174-48.13811,43.52885
			c-24.65092-1.84291-43.06578-24.31937-41.13075-50.2026s23.4872-45.37174,48.13812-43.52884
			S215.74297,78.8716,215.50864,105.17113z"/>
		<path fill="#E7CD60" d="M143.00644,69.71428c-1.19206-3.96547-2.38412-7.93094-3.57617-11.89642
			c-0.89862-2.98932-1.79724-5.97863-2.69595-8.96826c-1.41988-4.72308-3.17189-9.01773-0.84937-13.74787
			c2.0903-4.2572,8.33096-5.86618,12.88179-5.96564c7.78548-0.17006,13.851,3.67175,16.96609,11.05554
			c2.38942,5.66367,4.34926,11.56574,6.5435,17.31419l14.63701,2.62119l-9.7291-24.50375c0,0-7.21725-20.17145-32.37387-19.21644
			c-7.83214,0.29733-15.23381,3.45361-19.36766,10.35387c-6.74236,11.25448-2.04655,22.06575,1.35949,33.43726
			c1.49746,4.99947,2.99493,9.99893,4.49238,14.9984c1.05872,3.53467,1.60748,6.36696,6.02704,4.31023
			C141.09212,77.75191,142.99663,73.73067,143.00644,69.71428z"/>
		
			<ellipse transform="matrix(0.94751 -0.31973 0.31973 0.94751 -22.64291 62.22746)" fill="#F4ED98" cx="178.19742" cy="100.07458" rx="37.40836" ry="45.10765"/>
		
			<ellipse transform="matrix(0.94751 -0.31973 0.31973 0.94751 -23.4248 63.75988)" fill="#2B2C2C" cx="182.47357" cy="103.22211" rx="32.8406" ry="39.59975"/>
		<path fill="#2B2C2C" stroke="#9C7F2E" stroke-miterlimit="10" d="M202.18927,97.34235
			c-1.28723,3.20123,7.37453,4.54459,7.00525,7.58599c-0.70187,5.78049-10.19691,12.616-15.29262,14.33549
			c-7.77682,2.62421-16.67516-2.93571-19.87498-12.4184c-3.19984-9.4827,0.51054-19.29729,8.28735-21.92149
			C190.09109,82.29974,208.54361,81.53956,202.18927,97.34235z"/>
		<line fill="none" stroke="#9C7F2E" stroke-miterlimit="10" x1="172.70619" y1="69.26254" x2="175.35385" y2="74.69564"/>
		<line fill="none" stroke="#9C7F2E" stroke-miterlimit="10" x1="196.69142" y1="136.4953" x2="195.3615" y2="130.94257"/>
		<line fill="none" stroke="#9C7F2E" stroke-miterlimit="10" x1="154.30074" y1="114.13054" x2="159.88589" y2="112.36677"/>
		<line fill="none" stroke="#9C7F2E" stroke-miterlimit="10" x1="154.07147" y1="85.10184" x2="160.36824" y2="88.40829"/>
		<line fill="none" stroke="#9C7F2E" stroke-miterlimit="10" x1="172.98232" y1="135.59532" x2="175.77385" y2="130.35072"/>
		<line fill="none" stroke="#9C7F2E" stroke-miterlimit="10" x1="211.80067" y1="118.21111" x2="207.82515" y2="115.95071"/>
		<line fill="none" stroke="#9C7F2E" stroke-miterlimit="10" x1="196.08934" y1="72.49213" x2="194.28062" y2="78.29193"/>
		<path fill="#FFFFFF" stroke="#000000" stroke-miterlimit="10" d="M180.24779,85.09559"/>
		<polygon fill="#EF4D23" points="170.12503,63.87574 164.73969,60.81375 170.74838,59.49004 		"/>
		
			<ellipse transform="matrix(0.94751 -0.31973 0.31973 0.94751 -21.04634 68.49409)" fill="#9C7F2E" cx="198.08124" cy="98.34541" rx="11.77356" ry="14.35615"/>
	</g>
	<g>
		<path fill="#F4ED98" d="M135.23289,77.17223c-1.49744-4.99951-2.99487-9.99902-4.49231-14.99841
			c-3.40613-11.37146-8.10193-22.18274-1.3595-33.43726c4.13379-6.90027,11.53552-10.05652,19.36768-10.35388
			c7.5332-0.28601,13.44727,1.32886,18.05103,3.72266c-4.95984-3.43567-11.89429-6.08301-21.3844-5.72266
			c-7.83215,0.29736-15.23376,3.45361-19.36755,10.35388c-6.74243,11.25452-2.04663,22.0658,1.35938,33.43726
			c1.49756,4.99939,2.99487,9.9989,4.49243,14.99841c0.89868,3.00037,1.43896,5.48267,4.28223,4.91016
			C135.8308,79.25499,135.55492,78.24742,135.23289,77.17223z"/>
		<path fill="#F4ED98" d="M169.67113,42.16747c-1.9342-4.58484-5.00757-7.80115-8.92224-9.54236
			c2.34631,1.82971,4.2439,4.354,5.58899,7.54236c2.3894,5.6637,4.34924,11.5658,6.54346,17.31421l2.77417,0.49683
			C173.68407,52.70677,171.8535,47.34007,169.67113,42.16747z"/>
	</g>
	<path fill="#FDDDD1" d="M128.74995,86.49181c-0.14847-0.5843-0.33446-1.1599-0.54826-1.72146
		c-0.78045-2.04978-2.03367-4.05228-3.99387-5.03618c-5.42416-2.72259-8.0645,4.20441-7.41588,8.40144
		c-1.21797-0.26887-2.11964,1.4035-1.64706,2.55781c0.47258,1.1543,1.69447,1.78885,2.83751,2.28805
		c-0.25597,1.56026-0.51194,3.12051-0.76791,4.68076c2.35621,1.11576,4.71241,2.23153,7.06862,3.34729
		c0.11041-1.02137,0.22083-2.04274,0.33125-3.06411c0.04043-0.37398,0.08401-0.75852,0.26152-1.09016
		c0.2821-0.52705,0.84488-0.82625,1.33211-1.17261c1.62336-1.15401,2.59367-3.08475,2.84956-5.05999
		C129.23622,89.24332,129.0936,87.84428,128.74995,86.49181z"/>
	<path fill="#9D3B7F" d="M115.63883,86.78645c0,0,14.77821,1.66715,17.72463-0.51979
		c2.94641-2.18695-3.69119-3.84798-3.69119-3.84798s-2.07833-6.42528-8.965-4.82794S115.63883,86.78645,115.63883,86.78645z"/>
	<path fill="#FDDDD1" d="M135.57289,130.00366c0,0-16.58336-12.8309-16.58336-12.83092
		c0.16269-1.01965-0.20526-3.28192-0.57327-5.54446c-0.52029-3.1994-0.97547-15.84263-7.98553-10.66944
		c-3.60395,2.6596,1.93628,17.90894,1.93631,17.90898c1.68665,2.48419,2.82572,4.47037,5.55756,5.87718
		c2.26283,1.16529,4.522,2.33715,6.78298,3.50571c3.38569,1.74986,7.37394,3.12053,10.75962,4.87038L135.57289,130.00366z"/>
	<path fill="#BC68A5" d="M118.39774,110.98468c-1.66484,1.9255-7.38647,2.05498-9.76715,2.65537
		c0.18197-0.04589,0.51993-9.66985,0.60345-10.78707c0,0-0.01241-3.79786,5.58403-3.37971
		c3.52793,0.26472,5.45037,9.07755,3.60378,11.48186C118.41431,110.96495,118.40633,110.97473,118.39774,110.98468z"/>
	<path fill="#9D3B7F" d="M132.32889,129.08846c0,0,0.09966-2.78475,0.09993-2.79264c0.04649-1.29902,1.785-1.38712,2.40921-0.80574
		c0.64825,0.60378,0.56442,2.94788,0.59801,3.80572c1.99515,0.63097,4.43369-0.62721,6.37372,1.72319
		c1.32912,1.61028,1.86667,2.78165-0.69066,3.09753c-2.32892,0.28769-8.89587-1.91063-8.89587-1.91063l-0.91402-1.62689l0,0
		L132.32889,129.08846z"/>
	<path fill="#35255A" d="M233.61011,174.74547c0,0-6.25241,3.17833-8.62752,2.72882
		c-2.37509-0.44952-1.07881,2.18079-1.07881,2.18079s6.26688,2.42155,10.54439,0.25529c0,0,9.39308,0.83238,6.96004-4.41954
		C238.97516,170.23892,233.61011,174.74547,233.61011,174.74547z"/>
	<path fill="#35255A" d="M269.84555,179.1219c0,0-2.47952,1.46448-5.2171,1.79504c-2.73761,0.33058,0.02896,2.4012,0.02896,2.4012
		s7.86188,2.50858,11.59711-1.44699c0,0,5.2374,0.76564,3.49744-2.52876c-1.73999-3.29442-4.67477-5.21425-4.67477-5.21425
		S270.48068,176.27701,269.84555,179.1219z"/>
	<path fill="#67C5AF" d="M247.22891,130.37563c0,0-15.65141,14.18375-16.46344,17.33893
		c-0.81203,3.1552,1.41785,26.79309,1.41785,26.79309s8.83627,2.24179,9.22488,0.98318
		c0.38861-1.25859-0.56239-21.94719-1.44978-23.27539c-0.88739-1.32822,16.77367-8.36343,18.73125-17.85512
		S247.22891,130.37563,247.22891,130.37563z"/>
	<path fill="#67C5AF" d="M252.36189,133.05527c0,0-3.67448,20.43625,0.60295,27.06859s16.88071,18.99805,16.88071,18.99805
		l8.16641-3.07393c0,0-9.22766-12.66148-13.57471-18.01781c-4.34705-5.35634,1.85333-25.17488,1.85333-25.17488
		S257.51816,123.57812,252.36189,133.05527z"/>
	<path fill="#563D90" d="M241.33009,96.31735c-5.51572,0.46928-11.11769,2.27335-16.46916,0.13725
		c-0.87794-0.35044-10.15956-5.59733-10.38078-5.27776c-0.00069,0.001-3.68915,5.32948-3.15207,6.99901
		c0.69266,2.14449,6.46632,3.90084,8.26999,4.72891c6.95821,3.19453,13.77585,2.54692,21.22118,2.48344
		C240.81924,105.38821,246.57895,101.13314,241.33009,96.31735z"/>
	<path fill="#EEAA61" d="M214.07401,92.01517c0,0-5.41031-3.47338-8.93021-3.61073
		c-1.90294-0.07417-0.32048,1.33357,0.35617,1.91352c0.81613,0.69949,1.7774,1.24446,2.47708,2.07728
		c1.2598,1.49953-0.20517,1.44363-1.44576,1.78151c-1.1747,0.32013-0.52042,1.02325,0.22346,1.39538
		c1.01634,0.50835,4.1132,1.20274,5.12834,0.38462C212.67462,95.31886,214.07401,92.01517,214.07401,92.01517z"/>
	<path fill="#563D90" d="M239.42209,96.63017c0,0,0.32231-0.04236,0.89339-0.10779
		c3.18951-0.3654,14.13878-1.45023,20.03352,0.10827c5.26886,1.86295,3.77838,14.43575,3.65933,18.54912
		c-0.19067,6.58961,2.97311,12.52022,2.96838,18.98882c-0.0015,2.07561-20.99825-3.27304-21.16505-4.07312
		c-1.14294-5.48194-1.21643-10.87704-3.20078-16.39931C240.65294,108.24733,239.68584,102.39929,239.42209,96.63017z"/>
	<path fill="#EEAA61" d="M250.20435,92.31728c0,0,1.5175,3.83369,1.91684,4.07329c0.39934,0.23961-2.95514,4.79211-4.95184,4.63238
		c-1.99672-0.15974-2.58-2.82248-2.58-2.82248l3.7281-2.7184L250.20435,92.31728z"/>
	<path fill="#EEAA61" d="M246.01413,83.61195c0,0-5.68256-1.80074-6.82521,4.21215c0,0,1.13972,2.01637,0.44826,4.43666
		c-0.7359,2.57581,0.67462,6.2758,3.53456,6.57231c4.17377,0.43272,7.88574-7.28079,7.88574-7.28079
		S254.20676,84.4384,246.01413,83.61195z"/>
	<path fill="#35255A" d="M251.56009,84.27036c0,0-3.44968-7.37076-14.97075-0.69489c-0.25375,0.14704,2.90854,2.81538,3,2.875
		c2.36192,1.5396,6.21436,0.32288,8.77121,0.33495c-2.01334-0.00952-1.46158,4.64967-0.65598,5.50013
		c0.45343-0.88808,0.72675-1.95377,1.04868-2.96352c0.11453-0.3592,3.1006-1.26698,0.38222,4.95856
		C249.13547,94.28058,256.42844,88.82245,251.56009,84.27036z"/>
	<path fill="#EEAA61" d="M281.47253,127.8986c0,0,0.86447,6.06702-1.02353,8.61657c-1.34039,1.81007-2.85126-1.4478-3.6149-3.4899
		c-0.31198-0.83426-0.49924-1.46561-0.49924-1.46561l0.5177,3.61884c0,0-1.4563,1.67296-1.8916-0.12846
		c-0.43527-1.80141,0.18927-6.22194,0.18927-6.22194L281.47253,127.8986z"/>
	<path fill="#563D90" d="M260.6947,96.23383c-0.00043-0.00015-8.63187-3.01731-7.01738,5.4467
		c0.04152,1.66853,5.90651,5.27241,7.07045,6.22083c4.46744,3.6386,8.2717,5.22001,9.9599,11.01844
		c0.29718,1.02074,3.05231,12.2701,3.6355,12.26887c0.00778-0.00002,8.78528-0.01941,8.2988-3.69129
		c-0.88959-6.70911-3.07883-14.03879-7.19684-19.50052C272.50702,104.10006,265.23181,97.81984,260.6947,96.23383z"/>
</g>
</svg>
